<svg width="556" height="302" viewBox="0 0 556 302" fill="none" xmlns="http://www.w3.org/2000/svg">
<g clip-path="url(#clip0)">
<path d="M201.14 56.6769C200.714 56.2033 200.138 55.8907 199.508 55.7917C198.879 55.6927 198.235 55.8133 197.684 56.1333C197.133 56.4532 196.709 56.953 196.482 57.5488C196.256 58.1446 196.242 58.8002 196.441 59.4054C190.743 64.0905 184.253 67.7165 177.277 70.1115C176.314 70.395 176.849 71.8578 177.808 71.5757C184.912 69.1389 191.523 65.4506 197.329 60.6848C197.87 61.1282 198.559 61.3505 199.257 61.3071C199.955 61.2636 200.611 60.9577 201.094 60.4506C201.576 59.9435 201.849 59.2728 201.857 58.5729C201.866 57.8731 201.61 57.1958 201.14 56.6769H201.14Z" fill="#008C95"/>
<path d="M272.386 35.7819C272.099 35.2129 271.625 34.76 271.044 34.4991C270.463 34.2383 269.809 34.1854 269.194 34.3494C268.578 34.5133 268.038 34.8841 267.663 35.3996C267.288 35.915 267.102 36.5437 267.136 37.1801C260.408 40.2041 253.194 41.9978 245.834 42.4763C244.83 42.4968 244.963 44.049 245.962 44.0286C253.456 43.5435 260.803 41.7212 267.656 38.6478C268.062 39.2179 268.669 39.6132 269.354 39.7547C270.039 39.8962 270.752 39.7734 271.35 39.4108C271.949 39.0482 272.388 38.4727 272.58 37.7997C272.772 37.1266 272.703 36.4059 272.386 35.7819H272.386Z" fill="#008C95"/>
<path d="M262.533 53.7176C262.174 53.1911 261.645 52.8042 261.034 52.6217C260.424 52.4392 259.769 52.4724 259.181 52.7156C258.592 52.9587 258.104 53.3972 257.8 53.9572C257.496 54.5173 257.394 55.165 257.511 55.7915C251.237 59.6704 244.319 62.3935 237.085 63.8316C236.093 63.9834 236.428 65.5047 237.415 65.3537C244.781 63.8914 251.827 61.1227 258.219 57.1784C258.696 57.6904 259.349 58.003 260.046 58.0535C260.744 58.1041 261.435 57.8889 261.981 57.451C262.527 57.0132 262.887 56.3851 262.989 55.6927C263.092 55.0003 262.929 54.2948 262.533 53.7176H262.533Z" fill="#008C95"/>
<path d="M215.958 43.4688C215.83 42.8444 215.491 42.2831 214.999 41.8789C214.506 41.4748 213.89 41.2525 213.253 41.2493C212.616 41.2461 211.997 41.4622 211.5 41.8614C211.004 42.2606 210.659 42.8185 210.525 43.4416C203.241 44.5955 195.808 44.4346 188.58 42.9663C187.606 42.7229 187.328 44.2556 188.297 44.4978C195.657 45.995 203.224 46.1631 210.643 44.9943C210.885 45.6509 211.367 46.1916 211.991 46.5079C212.615 46.8241 213.335 46.8927 214.008 46.6996C214.681 46.5066 215.255 46.0664 215.617 45.4672C215.979 44.868 216.1 44.1542 215.958 43.4688V43.4688Z" fill="#008C95"/>
<path d="M231.971 52.6151C231.532 52.1526 230.948 51.855 230.317 51.7722C229.685 51.6894 229.044 51.8266 228.501 52.1606C227.959 52.4946 227.548 53.0051 227.337 53.6066C227.126 54.208 227.128 54.8636 227.343 55.4636C221.768 60.2937 215.372 64.0854 208.46 66.6591C207.505 66.9671 208.078 68.4157 209.029 68.1091C216.068 65.4904 222.582 61.6332 228.263 56.7197C228.816 57.1491 229.51 57.3536 230.207 57.2922C230.904 57.2309 231.552 56.9082 232.021 56.3888C232.49 55.8695 232.746 55.1919 232.736 54.4921C232.727 53.7922 232.453 53.1217 231.971 52.6151H231.971Z" fill="#008C95"/>
<path d="M192.183 74.6434C191.91 74.0676 191.447 73.6033 190.872 73.3284C190.298 73.0535 189.646 72.9847 189.026 73.1336C188.407 73.2826 187.858 73.6401 187.47 74.1463C187.083 74.6525 186.882 75.2764 186.9 75.9135C180.101 78.7727 172.845 80.3901 165.476 80.6892C164.472 80.6853 164.567 82.2402 165.566 82.2441C173.07 81.9417 180.459 80.2989 187.385 77.3934C187.777 77.9732 188.373 78.3833 189.055 78.5415C189.736 78.6996 190.452 78.5942 191.059 78.2463C191.666 77.8983 192.12 77.3336 192.328 76.6654C192.536 75.9972 192.484 75.275 192.183 74.6434L192.183 74.6434Z" fill="#008C95"/>
<path d="M163.974 67.3756C163.47 66.9851 162.848 66.7796 162.211 66.7938C161.574 66.808 160.962 67.0409 160.476 67.4534C159.99 67.8659 159.661 68.433 159.544 69.0595C159.427 69.6859 159.529 70.3337 159.833 70.8939C155.055 76.515 149.309 81.2343 142.867 84.8282C141.97 85.2779 142.756 86.6226 143.649 86.1751C150.209 82.5175 156.062 77.7155 160.932 71.9959C161.543 72.3364 162.261 72.433 162.94 72.2665C163.62 72.1 164.211 71.6826 164.596 71.098C164.981 70.5134 165.131 69.8049 165.015 69.1146C164.9 68.4242 164.528 67.8031 163.974 67.3757L163.974 67.3756Z" fill="#008C95"/>
<path d="M116.482 128.584C117.119 128.596 117.741 128.389 118.243 127.997C118.745 127.605 119.097 127.052 119.24 126.43C119.383 125.809 119.308 125.158 119.028 124.585C118.747 124.013 118.279 123.555 117.701 123.287C118.174 115.923 119.961 108.704 122.979 101.971C123.43 101.074 121.997 100.466 121.548 101.359C118.473 108.214 116.648 115.564 116.161 123.061C115.467 123.154 114.834 123.505 114.389 124.045C113.944 124.585 113.719 125.273 113.759 125.972C113.8 126.67 114.103 127.328 114.608 127.812C115.113 128.297 115.782 128.572 116.482 128.584L116.482 128.584Z" fill="#008C95"/>
<path d="M108.145 125.627C108.749 125.829 109.404 125.817 110.001 125.593C110.597 125.369 111.098 124.947 111.42 124.397C111.742 123.847 111.865 123.203 111.769 122.573C111.672 121.943 111.362 121.365 110.89 120.937C113.541 114.051 117.404 107.696 122.295 102.174C122.993 101.452 121.807 100.443 121.112 101.161C116.13 106.783 112.193 113.252 109.488 120.261C108.799 120.142 108.09 120.288 107.504 120.67C106.918 121.052 106.497 121.641 106.327 122.32C106.157 122.999 106.25 123.717 106.587 124.331C106.925 124.944 107.481 125.407 108.145 125.627L108.145 125.627Z" fill="#008C95"/>
<path d="M145.378 98.9069C144.892 99.0739 144.463 99.3725 144.137 99.7696C143.812 100.167 143.603 100.646 143.534 101.155C139.959 101.654 136.369 102.023 132.762 102.224C130.166 102.471 127.557 102.551 124.95 102.463C130.838 100.383 136.564 97.8727 142.085 94.9537C142.614 95.3576 143.271 95.5578 143.936 95.5178C144.6 95.4778 145.228 95.2002 145.706 94.7357C146.183 94.2712 146.477 93.6506 146.536 92.987C146.594 92.3234 146.412 91.661 146.023 91.1204C145.633 90.5799 145.063 90.1972 144.416 90.0421C143.768 89.8869 143.086 89.9697 142.495 90.2753C141.903 90.5809 141.441 91.0889 141.192 91.7069C140.944 92.3249 140.925 93.0116 141.141 93.642L141.16 93.6837C136.003 96.3999 130.664 98.7538 125.181 100.728C128.817 97.5565 132.197 94.1016 135.287 90.3959C135.925 90.673 136.642 90.7098 137.304 90.4993C137.967 90.2889 138.531 89.8455 138.892 89.2511C139.253 88.6567 139.387 87.9516 139.269 87.2661C139.151 86.5807 138.788 85.9612 138.249 85.5224C137.709 85.0836 137.029 84.855 136.335 84.879C135.64 84.903 134.977 85.178 134.469 85.653C133.961 86.128 133.642 86.7709 133.572 87.4629C133.501 88.1549 133.683 88.8491 134.084 89.4172C131.185 92.8836 128.032 96.1301 124.652 99.1298C127.274 94.6926 129.501 90.0337 131.309 85.2068C131.974 85.301 132.651 85.1518 133.216 84.7866C133.78 84.4215 134.194 83.8648 134.381 83.219C134.568 82.5732 134.516 81.8815 134.234 81.2711C133.952 80.6607 133.46 80.1724 132.847 79.8961C132.234 79.6198 131.542 79.5739 130.899 79.767C130.255 79.96 129.702 80.3789 129.342 80.9468C128.983 81.5148 128.84 82.1935 128.94 82.8584C129.04 83.5232 129.377 84.1296 129.888 84.566C128.198 89.1037 126.13 93.4909 123.704 97.6812C124.514 93.1261 124.979 88.5164 125.097 83.8913C125.741 83.7126 126.299 83.3073 126.669 82.7499C127.039 82.1925 127.195 81.5205 127.109 80.8571C127.023 80.1937 126.701 79.5835 126.202 79.1385C125.703 78.6935 125.06 78.4436 124.392 78.4347C123.723 78.4257 123.074 78.6583 122.563 79.0898C122.052 79.5212 121.714 80.1226 121.61 80.7834C121.507 81.4443 121.645 82.1203 122 82.6874C122.354 83.2545 122.901 83.6745 123.541 83.8705C123.419 88.6203 122.924 93.3531 122.06 98.0249C121.465 93.0026 120.204 88.0818 118.311 83.3923C118.837 82.9775 119.195 82.3867 119.32 81.7286C119.445 81.0705 119.329 80.3894 118.992 79.8103C118.656 79.2313 118.121 78.7933 117.488 78.5769C116.854 78.3605 116.163 78.3802 115.543 78.6324C114.923 78.8845 114.414 79.3523 114.111 79.9496C113.808 80.5469 113.73 81.2336 113.893 81.8834C114.055 82.5333 114.447 83.1027 114.995 83.4869C115.544 83.8711 116.213 84.0443 116.878 83.9747C118.806 88.7384 120.055 93.7494 120.589 98.8609C118.071 94.0743 114.937 89.638 111.268 85.6648C111.599 85.0855 111.709 84.4064 111.58 83.7522C111.45 83.0979 111.089 82.5124 110.563 82.103C110.036 81.6937 109.38 81.4879 108.714 81.5235C108.049 81.5592 107.418 81.8338 106.939 82.297C106.459 82.7602 106.162 83.3809 106.103 84.0453C106.044 84.7096 106.226 85.373 106.617 85.9137C107.007 86.4544 107.579 86.8361 108.228 86.9888C108.877 87.1415 109.559 87.055 110.15 86.745C113.601 90.4735 116.568 94.6227 118.981 99.0943C114.859 95.8906 110.443 93.0862 105.791 90.7188C105.95 90.0725 105.871 89.3905 105.568 88.7978C105.265 88.2051 104.759 87.7415 104.142 87.492C103.526 87.2424 102.84 87.2237 102.21 87.4393C101.581 87.6548 101.05 88.0902 100.715 88.6655C100.381 89.2408 100.265 89.9175 100.389 90.5715C100.512 91.2255 100.868 91.8129 101.389 92.226C101.911 92.6391 102.564 92.8502 103.229 92.8206C103.893 92.791 104.525 92.5226 105.008 92.0648C109.229 94.2264 113.264 96.7351 117.07 99.5651C112.347 98.1694 107.478 97.3261 102.56 97.0519C102.418 96.3957 102.044 95.8128 101.507 95.4104C100.97 95.0079 100.306 94.8129 99.6366 94.8612C98.9673 94.9095 98.3378 95.1978 97.864 95.6733C97.3902 96.1487 97.1038 96.7792 97.0575 97.449C97.0112 98.1188 97.208 98.7828 97.6119 99.319C98.0157 99.8551 98.5995 100.227 99.2558 100.368C99.9121 100.508 100.597 100.406 101.184 100.081C101.772 99.7567 102.222 99.2309 102.453 98.6005C108.167 98.8511 113.808 99.9876 119.174 101.97C113.46 101.845 107.753 102.46 102.196 103.8C101.84 103.233 101.292 102.814 100.652 102.619C100.012 102.424 99.3232 102.467 98.7121 102.739C98.101 103.011 97.6086 103.495 97.3251 104.101C97.0417 104.707 96.9862 105.395 97.169 106.039C97.3517 106.683 97.7604 107.239 98.32 107.606C98.8796 107.972 99.5526 108.125 100.215 108.035C100.878 107.945 101.487 107.619 101.929 107.117C102.371 106.615 102.617 105.97 102.622 105.301C107.54 104.124 112.577 103.524 117.633 103.513C112.516 106.555 107.725 110.115 103.335 114.137C102.713 113.751 101.972 113.605 101.25 113.725C100.529 113.846 99.8752 114.225 99.412 114.792C98.9488 115.358 98.7075 116.075 98.7329 116.806C98.7584 117.538 99.049 118.235 99.5504 118.769C100.052 119.302 100.73 119.634 101.459 119.704C102.187 119.774 102.916 119.577 103.51 119.149C104.103 118.721 104.521 118.091 104.685 117.378C104.85 116.664 104.749 115.915 104.402 115.271C109.285 110.803 114.671 106.918 120.451 103.695C120.572 103.78 120.719 103.82 120.866 103.81C121.244 109.536 122.12 115.218 123.487 120.791C122.907 121.133 122.471 121.672 122.257 122.31C122.043 122.947 122.066 123.641 122.322 124.263C122.579 124.885 123.051 125.393 123.652 125.695C124.253 125.996 124.942 126.071 125.594 125.905C126.245 125.738 126.815 125.342 127.198 124.79C127.581 124.237 127.752 123.564 127.679 122.896C127.606 122.227 127.295 121.607 126.802 121.15C126.308 120.692 125.667 120.428 124.995 120.406C123.873 115.835 123.086 111.187 122.642 106.501C124.931 110.877 127.59 115.05 130.588 118.974C130.234 119.523 130.086 120.181 130.17 120.83C130.255 121.479 130.566 122.076 131.05 122.517C131.533 122.957 132.157 123.212 132.81 123.236C133.464 123.26 134.104 123.051 134.619 122.647C135.133 122.243 135.487 121.67 135.619 121.029C135.75 120.388 135.65 119.721 135.337 119.147C135.024 118.573 134.517 118.129 133.907 117.893C133.297 117.657 132.623 117.646 132.005 117.86C131.921 117.889 131.847 117.933 131.767 117.969C128.799 114.076 126.173 109.934 123.917 105.588C128.197 109.712 132.911 113.357 137.979 116.461C137.808 117.114 137.879 117.807 138.178 118.412C138.477 119.017 138.985 119.494 139.608 119.754C140.23 120.015 140.926 120.042 141.567 119.831C142.207 119.619 142.75 119.183 143.096 118.603C143.441 118.023 143.565 117.338 143.446 116.673C143.327 116.009 142.971 115.41 142.446 114.986C141.92 114.563 141.259 114.343 140.585 114.368C139.911 114.393 139.268 114.661 138.775 115.122C134.063 112.234 129.66 108.869 125.637 105.079C130.828 106.889 136.225 108.044 141.702 108.518C141.719 108.62 141.743 108.721 141.772 108.821C141.979 109.452 142.403 109.989 142.968 110.337C143.534 110.685 144.204 110.822 144.86 110.723C145.516 110.624 146.117 110.296 146.554 109.796C146.992 109.297 147.238 108.659 147.25 107.995C147.263 107.331 147.039 106.684 146.62 106.169C146.201 105.654 145.614 105.304 144.962 105.181C144.309 105.058 143.635 105.17 143.057 105.497C142.479 105.824 142.036 106.346 141.806 106.968C136.925 106.556 132.107 105.586 127.446 104.077C129.253 104.039 131.058 103.877 132.762 103.782C136.445 103.576 140.11 103.194 143.76 102.686C143.984 103.174 144.345 103.586 144.798 103.873C145.252 104.159 145.778 104.308 146.315 104.301C146.851 104.294 147.374 104.132 147.82 103.834C148.266 103.535 148.616 103.114 148.827 102.62C149.038 102.127 149.101 101.583 149.01 101.054C148.918 100.526 148.674 100.035 148.309 99.6416C147.944 99.2485 147.473 98.9698 146.953 98.8394C146.432 98.709 145.885 98.7324 145.378 98.9069L145.378 98.9069Z" fill="#008C95"/>
<path d="M72.8366 252.414C72.8362 252.796 72.8432 253.193 72.8366 252.414V252.414Z" fill="#96C93D"/>
<path d="M149.345 204.55C139.963 184.059 123.697 167.658 102.307 161.374C104.894 151.548 108.082 141.891 111.855 132.456C113.298 128.888 107.516 127.337 106.088 130.866C102.288 140.354 99.0719 150.066 96.4578 159.947C95.3043 159.718 94.1423 159.507 92.9623 159.336C84.0265 158.008 74.9305 158.203 66.0599 159.913C63.6992 152.128 60.8008 144.517 57.3857 137.134C59.7949 135.861 64.2605 137.372 66.3378 137.889C70.1261 139.104 74.0298 139.924 77.9867 140.336C85.8888 140.615 91.0042 133.944 91.7193 126.571C91.9833 122.696 90.9158 118.846 88.6937 115.661C87.3493 113.475 86.3952 113.495 88.1138 111.873C89.2853 110.894 90.3255 109.768 91.2083 108.522C92.1792 106.965 92.5837 105.12 92.3537 103.3C92.1236 101.479 91.2732 99.7929 89.9456 98.5262C90.9217 97.7075 91.7074 96.6854 92.2477 95.5313C92.788 94.3772 93.0699 93.1191 93.0737 91.8447C92.9299 90.6036 92.4993 89.4129 91.816 88.3671C91.1327 87.3213 90.2154 86.4489 89.1368 85.8191C88.7245 85.5379 88.0029 84.9484 87.3386 84.5649C88.92 83.3143 90.2304 81.755 91.1902 79.9817C92.15 78.2084 92.7391 76.2583 92.9216 74.25C93.4232 69.6049 91.0062 67.3877 87.5137 64.7607C83.2604 61.5616 78.6439 58.8677 74.448 55.5894C72.4048 53.993 68.2508 50.573 68.9249 48.6014C69.4665 47.0178 71.6096 45.1957 72.1854 42.8219C73.3938 37.8404 71.5376 32.1692 69.9885 27.495C66.208 16.0868 57.3208 7.65425 47.8927 0.579842C44.8128 -1.73115 41.8287 3.46092 44.8743 5.74613C51.3938 10.6381 60.0964 18.0134 63.266 26.3388C64.8604 30.5269 67.58 36.8198 66.3714 41.4457C65.9071 43.2226 64.6528 43.8486 63.6987 45.7114C59.7991 53.3257 69.8578 59.76 74.991 63.347C78.8972 65.6798 82.6075 68.3264 86.0851 71.2606C86.4929 71.6129 86.8557 72.0141 87.1655 72.4551C87.1402 72.6356 87.1018 72.8573 87.0421 73.1368C86.8795 73.8989 86.8862 74.6372 86.6722 75.4003C86.1545 77.2066 84.943 78.7344 83.3025 79.6495C80.0934 81.7574 77.9547 84.8178 81.5452 88.1118C82.8765 89.3331 87.1418 90.5394 87.0162 92.5097C86.9135 94.1172 83.694 95.9476 82.4312 96.6679C79.3039 98.4515 81.554 102.658 84.7353 102.136C83.8365 102.283 85.2336 102.172 85.7988 102.685C87.3801 104.12 86.0264 105.559 85.0028 106.625C83.3186 108.379 80.976 109.805 80.8778 112.516C80.7501 116.048 84.194 118.919 85.3431 122.039C85.7911 123.474 85.9373 124.986 85.7722 126.479C85.6072 127.973 85.1347 129.417 84.3844 130.719C80.6891 137.322 72.1279 133.076 66.5649 131.786C61.0605 130.509 54.8608 129.778 51.2137 134.978C50.9483 135.437 50.8086 135.957 50.8086 136.488C50.8086 137.018 50.9483 137.539 51.2137 137.998C54.8229 145.518 57.8604 153.301 60.3002 161.278C45.1208 165.494 31.769 174.63 22.3385 187.254C8.01919 206.273 1.61733 230.89 0.258169 254.368C-0.435533 263.483 0.0727279 272.649 1.76986 281.632C2.5228 286.162 4.5757 290.376 7.67876 293.761C10.7818 297.145 14.8013 299.554 19.248 300.695C31.9554 304.563 45.2888 299.275 55.7491 292.124C67.5666 284.044 77.174 272.073 78.7346 257.467C78.9137 255.962 78.9682 254.444 78.8976 252.929C78.8801 252.632 78.8456 252.335 78.8272 252.038L78.8085 251.74C78.8119 251.754 78.8141 251.736 78.8139 251.656C78.8012 246.482 78.6257 241.309 78.3548 236.142C77.3637 212.998 73.9789 190.019 68.2545 167.573C68.0704 166.881 67.8729 166.193 67.6823 165.503C69.3321 165.209 71.0072 164.971 72.713 164.804C80.1275 164.057 87.6122 164.43 94.9157 165.911C91.9426 177.959 89.6696 190.191 87.8067 202.416C85.1801 218.57 83.4758 234.861 82.7023 251.208C82.6917 251.395 82.6908 251.582 82.6996 251.768C82.6623 252.024 82.625 252.28 82.6096 252.538C82.535 253.809 82.5464 255.083 82.644 256.352C83.0865 261.695 84.5622 266.9 86.9888 271.679C93.7766 284.146 104.792 293.777 118.049 298.838C130.386 303.743 148.682 303.533 156.52 290.73C160.053 284.96 160.702 277.164 161.173 270.6C162.737 247.944 158.674 225.253 149.345 204.55ZM87.1706 72.4152C86.9834 71.8908 87.3012 71.434 87.1706 72.4152V72.4152ZM69.606 205.831C71.6151 220.861 72.693 236.001 72.8336 251.165C72.8355 251.41 72.8301 251.655 72.8326 251.9L72.8373 252.414C72.8377 252.093 72.8434 251.793 72.8679 252.24C72.9244 253.277 72.964 254.303 72.9201 255.342C72.6626 259.983 71.4399 264.519 69.3302 268.66C63.1167 280.224 52.863 289.093 40.5274 293.573C33.6438 296.483 25.9229 296.721 18.8737 294.239C16.9365 293.427 15.118 292.357 13.4673 291.057C12.9139 290.624 10.304 288.031 10.6476 288.487C10.1582 287.761 9.71985 287.002 9.33585 286.215C7.03629 279.824 5.92869 273.066 6.0681 266.275C5.20051 244.887 9.59179 223.614 18.8568 204.32C27.9428 186.163 42.7858 172.12 61.9383 166.805C65.4049 179.618 67.9672 192.658 69.606 205.831ZM153.946 280.041C153.364 284.299 151.298 288.215 148.114 291.1C144.929 293.984 140.83 295.653 136.537 295.811C124.23 297.293 111.528 290.164 102.698 282.216C98.4639 278.694 95.0164 274.322 92.5781 269.383C90.1398 264.445 88.7651 259.049 88.543 253.545C88.5421 253.155 88.5828 252.766 88.6027 252.378C88.6705 251.053 88.5247 254.286 88.6505 251.922C88.6997 250.996 88.7393 250.069 88.7914 249.143C89.1594 242.61 89.7076 236.086 90.3607 229.576C92.3448 208.624 95.8198 187.84 100.759 167.382C115.263 171.7 127.817 180.922 136.277 193.474C148.607 211.523 154.249 233.98 155.311 255.618C155.893 263.784 155.434 271.991 153.946 280.041L153.946 280.041Z" fill="#96C93D"/>
<path d="M215.421 158.721H199.571V167.154H193.557V110.298H215.421L215.421 158.721ZM199.571 116.556V152.464H209.317V116.556H199.571ZM273.45 151.195H249.218V174.953C249.218 179.215 248.126 181.029 245.393 182.208C240.51 183.412 235.464 183.81 230.453 183.387C229.922 181.127 229.062 178.958 227.902 176.948C233.64 177.129 238.924 177.038 240.291 177.038C241.932 177.038 242.568 176.494 242.568 174.953V151.195H219.339V144.756H242.568V113.019C235.645 113.835 228.448 114.47 221.798 114.923C221.44 113.006 220.827 111.146 219.975 109.392C235.23 108.439 250.377 106.194 265.252 102.682L269.898 108.032C263.1 109.836 256.192 111.2 249.218 112.112V144.756H273.45V151.195ZM228.538 118.551C231.973 125.205 234.428 132.321 235.827 139.678L229.815 141.673C228.513 134.281 226.183 127.109 222.892 120.363L228.538 118.551ZM254.592 140.042C258.061 132.67 260.924 125.027 263.156 117.191L269.716 119.095C266.874 126.879 263.62 134.507 259.968 141.946L254.592 140.042Z" fill="#008C95"/>
<path d="M296.752 160.536V167.881H290.74V108.304H314.881V160.536H296.752ZM296.752 114.652V154.278H308.776V114.652H296.752ZM369.266 133.331C366.811 145.472 361.327 156.796 353.323 166.247C358.768 171.474 365.213 175.546 372.271 178.217C370.619 179.865 369.153 181.69 367.899 183.658C360.813 180.626 354.379 176.254 348.95 170.782C343.121 176.252 336.325 180.588 328.91 183.568C327.744 181.59 326.303 179.788 324.628 178.217C331.995 175.442 338.766 171.287 344.578 165.976C338.582 158.595 333.87 150.257 330.641 141.311C328.272 157.723 323.444 173.592 313.058 183.749C311.592 182.124 310.008 180.608 308.32 179.215C323.808 164.071 325.811 135.326 326.267 112.566H318.342V106.399H355.236L356.421 106.128L361.158 106.853C360.156 114.108 358.515 123.719 356.967 131.881H363.892L365.166 131.7L369.266 133.331ZM332.826 112.566C332.644 118.732 332.279 125.261 331.733 131.881H350.408C351.593 125.623 352.959 118.278 353.78 112.566H332.826ZM335.559 138.136C338.528 146.682 343.036 154.611 348.86 161.531C354.706 154.744 358.996 146.759 361.431 138.136H335.559Z" fill="#008C95"/>
<path d="M413.949 139.316C411.515 143.273 408.773 147.033 405.75 150.561H423.059V141.583H429.618V150.561H455.854V173.229C455.854 176.766 455.125 178.399 452.482 179.486C447.941 180.497 443.275 180.833 438.635 180.484C438.139 178.47 437.406 176.522 436.45 174.681C441.642 174.77 446.106 174.77 447.38 174.681C448.747 174.681 449.203 174.318 449.203 173.139V156.545H429.618V186.469H423.059V156.545H405.112V181.209H398.462V157.995C394.487 161.592 390.117 164.726 385.435 167.336C384.148 165.476 382.65 163.772 380.971 162.257C391.093 156.736 399.745 148.87 406.205 139.316H382.976V133.332H409.85C411.419 130.467 412.789 127.498 413.949 124.445C406.297 126.712 398.462 128.707 391.175 130.249C389.809 128.23 388.254 126.348 386.529 124.626C397.073 122.868 407.482 120.384 417.683 117.19C409.12 114.199 400.192 111.478 392.177 109.301L396.823 105.221C406.022 107.579 416.498 110.662 426.52 114.107C433.962 111.452 441.034 107.857 447.565 103.408L453.121 107.124C447.394 111.047 441.291 114.389 434.902 117.1C442.081 119.585 449.107 122.491 455.944 125.805L450.934 130.701C443.017 126.754 434.864 123.302 426.52 120.365C423.605 121.452 420.598 122.36 417.593 123.356L421.511 124.445C420.312 127.482 418.944 130.449 417.411 133.332H462.958V139.316L413.949 139.316Z" fill="#008C95"/>
<path d="M481.483 119.004H473.284V113.109H492.78C491.777 110.57 490.593 107.579 489.5 105.221L495.421 103.498C497.121 106.561 498.524 109.779 499.612 113.109H514.096V119.004H487.678V135.327C487.678 138.137 488.224 139.044 490.593 139.044H504.894C507.089 139.038 509.28 138.886 511.455 138.59C511.637 140.223 511.909 142.852 512.183 144.303C509.844 144.767 507.458 144.95 505.076 144.847H490.685C483.396 144.847 481.483 142.308 481.483 135.236V119.004ZM517.649 178.58H554.543V184.292H474.287V178.58H510.907V170.238H479.753V164.615H510.907V156.817C501.069 157.452 490.957 157.814 481.755 157.996C481.464 156.106 480.976 154.253 480.299 152.465C502.709 151.919 529.764 150.197 545.07 147.113L548.349 152.554C538.198 154.417 527.947 155.689 517.649 156.364V164.615H549.441V170.238H517.649L517.649 178.58ZM556 111.024C551.082 133.875 536.688 143.76 517.739 148.292C516.854 146.446 515.753 144.712 514.46 143.124C519.114 142.223 523.641 140.762 527.943 138.771C525.028 135.236 520.654 130.43 516.737 126.439C515.703 127.388 514.608 128.267 513.458 129.07C512.135 127.402 510.494 126.015 508.63 124.989C516.402 119.561 522.645 112.222 526.759 103.679L533.409 104.766C532.604 106.485 531.691 108.152 530.676 109.755H550.808L551.992 109.482L556 111.024ZM539.786 130.249C535.776 127.074 529.492 122.722 524.026 119.185C522.749 120.635 521.475 121.906 520.108 123.266C524.39 127.347 529.31 132.607 532.497 136.233C535.182 134.572 537.633 132.559 539.786 130.249ZM527.123 115.196L526.667 115.74C532.133 119.004 538.419 123.266 542.791 126.53C545.251 123.082 547.128 119.253 548.349 115.196H527.123Z" fill="#008C95"/>
<path d="M251.146 241.476V245.744H189.273V241.476H196.295L194.986 204.845C199.317 203.352 203.546 201.581 207.648 199.542L209.988 203.331C206.822 204.709 202.831 206.084 199.252 207.255L199.53 215.654H209.096V219.578H199.665L200.009 228.53H209.3V232.454H200.148L200.491 241.476H240.133C240.271 238.927 240.476 235.899 240.615 232.732H231.254V228.805H240.754C240.889 225.916 241.028 222.884 241.098 219.856H231.601V215.929H241.167C241.233 212.762 241.302 209.664 241.302 206.772H231.049V202.709H245.502C245.433 214.828 245.089 231.354 244.468 241.476L251.146 241.476ZM213.431 249.876C207.086 254.602 200.23 258.597 192.991 261.787C192.369 260.891 191.134 259.307 190.308 258.346C197.162 255.486 203.598 251.711 209.439 247.122L213.431 249.876ZM218.936 225.568C218.332 230.175 216.836 234.619 214.531 238.653C213.517 237.869 212.434 237.177 211.296 236.587C213.509 233.095 214.876 229.134 215.288 225.02L218.936 225.568ZM223.962 221.784H212.879V199.611H216.871V206.293H228.366V210.217H216.87V217.995H226.232V218.064H227.953V236.378C227.953 238.375 227.54 239.201 226.093 239.893C223.748 240.431 221.335 240.615 218.936 240.441C218.688 239.306 218.27 238.215 217.697 237.205C219.484 237.327 221.276 237.35 223.066 237.274C223.753 237.274 223.962 237 223.962 236.378L223.962 221.784ZM229.536 246.914C236.47 250.173 243.163 253.923 249.563 258.137L246.602 261.582C240.346 257.286 233.792 253.442 226.988 250.081L229.536 246.914Z" fill="#008C95"/>
<path d="M286.29 256.071C286.29 258.62 285.672 259.929 284.086 260.616C281.178 261.427 278.148 261.707 275.142 261.443C274.888 260.023 274.472 258.636 273.902 257.311C277.207 257.449 280.164 257.38 280.99 257.38C281.886 257.311 282.299 257.036 282.299 256.071V236.378C279.407 238.17 276.585 239.893 273.972 241.476L272.046 237.687C271.874 246.058 270.146 254.323 266.95 262.061C265.865 261.129 264.632 260.385 263.302 259.859C267.985 250.15 268.328 236.378 268.328 226.395V201.678H286.29L286.29 256.071ZM272.389 226.329C272.389 229.631 272.32 233.211 272.111 237.07C274.798 235.965 278.446 234.316 282.299 232.454V223.093L279.407 225.503C277.271 222.711 274.925 220.086 272.389 217.651V226.329ZM272.389 205.945V216.964L274.729 215.172C277.463 217.551 279.995 220.154 282.299 222.954V205.945L272.389 205.945ZM310.448 212.557V220.818H324.553V246.775C324.553 249.119 324.21 250.564 322.492 251.39C319.884 252.174 317.152 252.454 314.439 252.217C314.201 250.634 313.712 249.1 312.992 247.671C316.022 247.74 318.5 247.74 319.257 247.74C320.083 247.671 320.288 247.466 320.288 246.709V225.02H310.448V261.787H305.904V225.02H296.612V251.942H292.416V220.818H305.904V212.557H289.251V208.22H305.904V199.751H310.448V208.22H327.17V212.557L310.448 212.557Z" fill="#008C95"/>
<path d="M402.917 205.945V209.939H354.327V227.843C354.327 238.24 353.019 252.56 344.623 261.926C343.707 260.799 342.642 259.803 341.457 258.963C346.392 252.851 349.26 245.33 349.649 237.483C346.757 239.271 343.866 240.924 341.183 242.507L339.531 238.514C342.283 237.274 345.931 235.278 349.992 233.146C350.062 231.284 350.062 229.562 350.062 227.843V205.945H375.798C374.804 203.873 373.63 201.892 372.289 200.025L376.281 198.65C378.012 200.899 379.468 203.349 380.616 205.945H402.917ZM345.036 226.534C344.201 221.875 342.718 217.357 340.631 213.109L344.14 211.731C346.31 215.866 347.865 220.296 348.753 224.881L345.036 226.534ZM357.562 229.218H376.559V242.233H357.562V229.218ZM395.482 246.087H399.817V261.856H395.482V259.377H358.389V246.087H362.654V255.522H376.763V243.473H381.099V255.522H395.482V246.087ZM361.141 238.997H372.841V232.454H361.141V238.997ZM393.351 225.638H364.993V213.384H393.351V225.638ZM389.221 216.62H368.919V222.336H389.221V216.62ZM381.373 229.218H401.126V242.233H381.373V229.218ZM384.955 238.997H397.343V232.454H384.955V238.997Z" fill="#008C95"/>
<path d="M478.389 235.073V239.549H416.381V235.073H432.417V218.339H419.203V213.932H432.417V199.82H437.096V213.932H457.331V199.82H462.01V213.932H475.845V218.339H462.01V235.073L478.389 235.073ZM440.539 245.605C434.935 252.106 428.282 257.623 420.856 261.926C419.769 260.76 418.596 259.678 417.347 258.689C424.379 254.943 430.638 249.896 435.791 243.817L440.539 245.605ZM437.096 235.073H457.331V218.339H437.096V235.073ZM457.331 243.747C464.094 248.458 470.573 253.562 476.737 259.033L472.471 261.856C466.444 256.216 460.078 250.95 453.409 246.087L457.331 243.747Z" fill="#008C95"/>
<path d="M515.39 212.488C512.984 218.108 509.96 223.442 506.373 228.392V261.787H501.833V233.833C499.295 236.658 496.456 239.198 493.367 241.407C492.642 240.008 491.837 238.652 490.958 237.344C499.485 230.878 506.194 222.315 510.434 212.488H493.089V208.15H512.225C513.418 205.232 514.429 202.242 515.251 199.198L519.93 200.303C519.108 202.987 518.212 205.602 517.178 208.15H552.758V212.488L515.39 212.488ZM554.066 242.782H535.348V256.279C535.348 259.103 534.73 260.408 532.596 261.169C528.645 261.871 524.626 262.102 520.621 261.856C520.359 260.346 519.871 258.884 519.173 257.519C523.922 257.654 528.052 257.654 529.222 257.589C530.461 257.519 530.735 257.175 530.735 256.21V242.782H511.399V238.514H530.735V232.663C534.646 230.528 538.275 227.914 541.54 224.881H517.316V220.683H545.809L546.705 220.405L549.662 222.745C545.451 227.21 540.632 231.058 535.348 234.177V238.514H554.066L554.066 242.782Z" fill="#008C95"/>
</g>
<defs>
<clipPath id="clip0">
<rect width="556" height="302" fill="white"/>
</clipPath>
</defs>
</svg>
